<mxfile host="app.diagrams.net" modified="2023-03-06T21:59:04.272Z" agent="5.0 (Windows NT 10.0; Win64; x64) AppleWebKit/537.36 (KHTML, like Gecko) Chrome/110.0.0.0 Safari/537.36" etag="sO4RH9fT1-r033SS7UqS" version="21.0.2" type="github">
  <diagram name="Página-1" id="QvSiTJwaeKs1xYG1yuQz">
    <mxGraphModel dx="824" dy="484" grid="1" gridSize="10" guides="1" tooltips="1" connect="1" arrows="1" fold="1" page="1" pageScale="1" pageWidth="827" pageHeight="1169" math="0" shadow="0">
      <root>
        <mxCell id="0" />
        <mxCell id="1" parent="0" />
        <mxCell id="a3pwXa6y-IH8qgYmV6d7-1" value="Dia de vencimento da fatura -&lt;br&gt;Após um número aceita&lt;br&gt;caracteres especiais" style="rounded=0;whiteSpace=wrap;html=1;" vertex="1" parent="1">
          <mxGeometry x="120" y="90" width="160" height="80" as="geometry" />
        </mxCell>
        <mxCell id="a3pwXa6y-IH8qgYmV6d7-2" value="Agência - aceita caracteres especiais" style="whiteSpace=wrap;html=1;" vertex="1" parent="1">
          <mxGeometry x="310" y="110" width="120" height="60" as="geometry" />
        </mxCell>
        <mxCell id="a3pwXa6y-IH8qgYmV6d7-4" value="Conta -&amp;nbsp;&lt;br&gt;&lt;br&gt;Aceita caracteres especiais" style="whiteSpace=wrap;html=1;" vertex="1" parent="1">
          <mxGeometry x="160" y="190" width="120" height="60" as="geometry" />
        </mxCell>
        <mxCell id="a3pwXa6y-IH8qgYmV6d7-5" value="Data de Nascimento - aceitando a data atual" style="whiteSpace=wrap;html=1;" vertex="1" parent="1">
          <mxGeometry x="310" y="190" width="120" height="60" as="geometry" />
        </mxCell>
        <mxCell id="a3pwXa6y-IH8qgYmV6d7-6" value="CPF - aceita cnpj&lt;br&gt;" style="rounded=0;whiteSpace=wrap;html=1;" vertex="1" parent="1">
          <mxGeometry x="460" y="110" width="120" height="60" as="geometry" />
        </mxCell>
        <mxCell id="a3pwXa6y-IH8qgYmV6d7-7" value="O campo de email não está aceitando um email válido" style="rounded=0;whiteSpace=wrap;html=1;" vertex="1" parent="1">
          <mxGeometry x="460" y="190" width="120" height="60" as="geometry" />
        </mxCell>
        <mxCell id="a3pwXa6y-IH8qgYmV6d7-8" value="Campo nome aceitando números" style="whiteSpace=wrap;html=1;" vertex="1" parent="1">
          <mxGeometry x="160" y="270" width="120" height="60" as="geometry" />
        </mxCell>
        <mxCell id="a3pwXa6y-IH8qgYmV6d7-9" value="Número de instalação - Aceita qualquer número com até 10 dígitos" style="whiteSpace=wrap;html=1;" vertex="1" parent="1">
          <mxGeometry x="310" y="270" width="120" height="60" as="geometry" />
        </mxCell>
        <mxCell id="a3pwXa6y-IH8qgYmV6d7-11" value="Bairro aceitando números" style="whiteSpace=wrap;html=1;" vertex="1" parent="1">
          <mxGeometry x="460" y="270" width="120" height="60" as="geometry" />
        </mxCell>
        <mxCell id="a3pwXa6y-IH8qgYmV6d7-12" value="Logradouro aceitando número" style="whiteSpace=wrap;html=1;" vertex="1" parent="1">
          <mxGeometry x="160" y="350" width="120" height="60" as="geometry" />
        </mxCell>
        <mxCell id="a3pwXa6y-IH8qgYmV6d7-14" value="popup do Whatsapp&lt;br&gt;&lt;br&gt;Aceitando dados inválidos" style="whiteSpace=wrap;html=1;" vertex="1" parent="1">
          <mxGeometry x="300" y="380" width="120" height="60" as="geometry" />
        </mxCell>
        <mxCell id="a3pwXa6y-IH8qgYmV6d7-18" value="" style="edgeStyle=orthogonalEdgeStyle;rounded=0;orthogonalLoop=1;jettySize=auto;html=1;" edge="1" parent="1" source="a3pwXa6y-IH8qgYmV6d7-16" target="a3pwXa6y-IH8qgYmV6d7-17">
          <mxGeometry relative="1" as="geometry" />
        </mxCell>
        <mxCell id="a3pwXa6y-IH8qgYmV6d7-16" value="Início" style="ellipse;whiteSpace=wrap;html=1;" vertex="1" parent="1">
          <mxGeometry x="50" y="480" width="120" height="80" as="geometry" />
        </mxCell>
        <mxCell id="a3pwXa6y-IH8qgYmV6d7-20" value="" style="edgeStyle=orthogonalEdgeStyle;rounded=0;orthogonalLoop=1;jettySize=auto;html=1;" edge="1" parent="1" source="a3pwXa6y-IH8qgYmV6d7-17" target="a3pwXa6y-IH8qgYmV6d7-19">
          <mxGeometry relative="1" as="geometry" />
        </mxCell>
        <mxCell id="a3pwXa6y-IH8qgYmV6d7-17" value="Home" style="whiteSpace=wrap;html=1;" vertex="1" parent="1">
          <mxGeometry x="50" y="620" width="120" height="60" as="geometry" />
        </mxCell>
        <mxCell id="a3pwXa6y-IH8qgYmV6d7-23" value="" style="edgeStyle=orthogonalEdgeStyle;rounded=0;orthogonalLoop=1;jettySize=auto;html=1;" edge="1" parent="1" source="a3pwXa6y-IH8qgYmV6d7-19" target="a3pwXa6y-IH8qgYmV6d7-22">
          <mxGeometry relative="1" as="geometry" />
        </mxCell>
        <mxCell id="a3pwXa6y-IH8qgYmV6d7-19" value="Contratar" style="shape=offPageConnector;whiteSpace=wrap;html=1;" vertex="1" parent="1">
          <mxGeometry x="250" y="610" width="80" height="80" as="geometry" />
        </mxCell>
        <mxCell id="a3pwXa6y-IH8qgYmV6d7-25" value="" style="edgeStyle=orthogonalEdgeStyle;rounded=0;orthogonalLoop=1;jettySize=auto;html=1;" edge="1" parent="1" source="a3pwXa6y-IH8qgYmV6d7-22" target="a3pwXa6y-IH8qgYmV6d7-24">
          <mxGeometry relative="1" as="geometry" />
        </mxCell>
        <mxCell id="a3pwXa6y-IH8qgYmV6d7-35" value="" style="edgeStyle=orthogonalEdgeStyle;rounded=0;orthogonalLoop=1;jettySize=auto;html=1;" edge="1" parent="1" source="a3pwXa6y-IH8qgYmV6d7-22" target="a3pwXa6y-IH8qgYmV6d7-34">
          <mxGeometry relative="1" as="geometry" />
        </mxCell>
        <mxCell id="a3pwXa6y-IH8qgYmV6d7-22" value="Casa ou apartamento" style="verticalLabelPosition=bottom;verticalAlign=top;html=1;shape=card;whiteSpace=wrap;size=20;arcSize=12;" vertex="1" parent="1">
          <mxGeometry x="240" y="730" width="100" height="60" as="geometry" />
        </mxCell>
        <mxCell id="a3pwXa6y-IH8qgYmV6d7-27" value="" style="edgeStyle=orthogonalEdgeStyle;rounded=0;orthogonalLoop=1;jettySize=auto;html=1;" edge="1" parent="1" source="a3pwXa6y-IH8qgYmV6d7-24" target="a3pwXa6y-IH8qgYmV6d7-26">
          <mxGeometry relative="1" as="geometry" />
        </mxCell>
        <mxCell id="a3pwXa6y-IH8qgYmV6d7-24" value="" style="verticalLabelPosition=bottom;verticalAlign=top;html=1;shape=mxgraph.flowchart.summing_function;" vertex="1" parent="1">
          <mxGeometry x="414" y="725" width="70" height="70" as="geometry" />
        </mxCell>
        <mxCell id="a3pwXa6y-IH8qgYmV6d7-32" value="" style="edgeStyle=orthogonalEdgeStyle;rounded=0;orthogonalLoop=1;jettySize=auto;html=1;" edge="1" parent="1" source="a3pwXa6y-IH8qgYmV6d7-26" target="a3pwXa6y-IH8qgYmV6d7-30">
          <mxGeometry relative="1" as="geometry" />
        </mxCell>
        <mxCell id="a3pwXa6y-IH8qgYmV6d7-26" value="Comércio&lt;span style=&quot;white-space: pre;&quot;&gt;	&lt;/span&gt;" style="verticalLabelPosition=bottom;verticalAlign=top;html=1;shape=card;whiteSpace=wrap;size=20;arcSize=12;" vertex="1" parent="1">
          <mxGeometry x="540" y="730" width="100" height="60" as="geometry" />
        </mxCell>
        <mxCell id="a3pwXa6y-IH8qgYmV6d7-28" value="Rural" style="verticalLabelPosition=bottom;verticalAlign=top;html=1;shape=card;whiteSpace=wrap;size=20;arcSize=12;" vertex="1" parent="1">
          <mxGeometry x="830" y="730" width="100" height="60" as="geometry" />
        </mxCell>
        <mxCell id="a3pwXa6y-IH8qgYmV6d7-33" value="" style="edgeStyle=orthogonalEdgeStyle;rounded=0;orthogonalLoop=1;jettySize=auto;html=1;" edge="1" parent="1" source="a3pwXa6y-IH8qgYmV6d7-30" target="a3pwXa6y-IH8qgYmV6d7-28">
          <mxGeometry relative="1" as="geometry" />
        </mxCell>
        <mxCell id="a3pwXa6y-IH8qgYmV6d7-30" value="" style="verticalLabelPosition=bottom;verticalAlign=top;html=1;shape=mxgraph.flowchart.summing_function;" vertex="1" parent="1">
          <mxGeometry x="710" y="725" width="70" height="70" as="geometry" />
        </mxCell>
        <mxCell id="a3pwXa6y-IH8qgYmV6d7-37" value="" style="edgeStyle=orthogonalEdgeStyle;rounded=0;orthogonalLoop=1;jettySize=auto;html=1;" edge="1" parent="1" source="a3pwXa6y-IH8qgYmV6d7-34" target="a3pwXa6y-IH8qgYmV6d7-36">
          <mxGeometry relative="1" as="geometry" />
        </mxCell>
        <mxCell id="a3pwXa6y-IH8qgYmV6d7-34" value="Selecione um estado" style="verticalLabelPosition=bottom;verticalAlign=top;html=1;shape=card;whiteSpace=wrap;size=20;arcSize=12;" vertex="1" parent="1">
          <mxGeometry x="240" y="870" width="100" height="60" as="geometry" />
        </mxCell>
        <mxCell id="a3pwXa6y-IH8qgYmV6d7-39" value="" style="edgeStyle=orthogonalEdgeStyle;rounded=0;orthogonalLoop=1;jettySize=auto;html=1;" edge="1" parent="1" source="a3pwXa6y-IH8qgYmV6d7-36" target="a3pwXa6y-IH8qgYmV6d7-38">
          <mxGeometry relative="1" as="geometry" />
        </mxCell>
        <mxCell id="a3pwXa6y-IH8qgYmV6d7-43" value="" style="edgeStyle=orthogonalEdgeStyle;rounded=0;orthogonalLoop=1;jettySize=auto;html=1;" edge="1" parent="1" source="a3pwXa6y-IH8qgYmV6d7-36" target="a3pwXa6y-IH8qgYmV6d7-42">
          <mxGeometry relative="1" as="geometry" />
        </mxCell>
        <mxCell id="a3pwXa6y-IH8qgYmV6d7-36" value="Pessoa física" style="verticalLabelPosition=bottom;verticalAlign=top;html=1;shape=card;whiteSpace=wrap;size=20;arcSize=12;" vertex="1" parent="1">
          <mxGeometry x="420" y="870" width="100" height="60" as="geometry" />
        </mxCell>
        <mxCell id="a3pwXa6y-IH8qgYmV6d7-41" value="" style="edgeStyle=orthogonalEdgeStyle;rounded=0;orthogonalLoop=1;jettySize=auto;html=1;" edge="1" parent="1" source="a3pwXa6y-IH8qgYmV6d7-38" target="a3pwXa6y-IH8qgYmV6d7-40">
          <mxGeometry relative="1" as="geometry" />
        </mxCell>
        <mxCell id="a3pwXa6y-IH8qgYmV6d7-38" value="" style="verticalLabelPosition=bottom;verticalAlign=top;html=1;shape=mxgraph.flowchart.summing_function;" vertex="1" parent="1">
          <mxGeometry x="570" y="865" width="70" height="70" as="geometry" />
        </mxCell>
        <mxCell id="a3pwXa6y-IH8qgYmV6d7-40" value="Pessoa Jurídica" style="verticalLabelPosition=bottom;verticalAlign=top;html=1;shape=card;whiteSpace=wrap;size=20;arcSize=12;" vertex="1" parent="1">
          <mxGeometry x="695" y="870" width="100" height="60" as="geometry" />
        </mxCell>
        <mxCell id="a3pwXa6y-IH8qgYmV6d7-47" value="" style="edgeStyle=orthogonalEdgeStyle;rounded=0;orthogonalLoop=1;jettySize=auto;html=1;" edge="1" parent="1" source="a3pwXa6y-IH8qgYmV6d7-42" target="a3pwXa6y-IH8qgYmV6d7-45">
          <mxGeometry relative="1" as="geometry" />
        </mxCell>
        <mxCell id="a3pwXa6y-IH8qgYmV6d7-42" value="Nome completo" style="verticalLabelPosition=bottom;verticalAlign=top;html=1;shape=card;whiteSpace=wrap;size=20;arcSize=12;fillColor=#f8cecc;strokeColor=#b85450;" vertex="1" parent="1">
          <mxGeometry x="420" y="1010" width="100" height="60" as="geometry" />
        </mxCell>
        <mxCell id="a3pwXa6y-IH8qgYmV6d7-44" value="Aceitando números" style="text;html=1;align=center;verticalAlign=middle;resizable=0;points=[];autosize=1;strokeColor=none;fillColor=none;" vertex="1" parent="1">
          <mxGeometry x="405" y="1025" width="130" height="30" as="geometry" />
        </mxCell>
        <mxCell id="a3pwXa6y-IH8qgYmV6d7-50" value="" style="edgeStyle=orthogonalEdgeStyle;rounded=0;orthogonalLoop=1;jettySize=auto;html=1;" edge="1" parent="1" source="a3pwXa6y-IH8qgYmV6d7-45" target="a3pwXa6y-IH8qgYmV6d7-49">
          <mxGeometry relative="1" as="geometry" />
        </mxCell>
        <mxCell id="a3pwXa6y-IH8qgYmV6d7-45" value="Número de telefone" style="verticalLabelPosition=bottom;verticalAlign=top;html=1;shape=card;whiteSpace=wrap;size=20;arcSize=12;" vertex="1" parent="1">
          <mxGeometry x="570" y="1010" width="100" height="60" as="geometry" />
        </mxCell>
        <mxCell id="a3pwXa6y-IH8qgYmV6d7-52" value="" style="edgeStyle=orthogonalEdgeStyle;rounded=0;orthogonalLoop=1;jettySize=auto;html=1;" edge="1" parent="1" source="a3pwXa6y-IH8qgYmV6d7-49" target="a3pwXa6y-IH8qgYmV6d7-51">
          <mxGeometry relative="1" as="geometry" />
        </mxCell>
        <mxCell id="a3pwXa6y-IH8qgYmV6d7-49" value="Continuar" style="whiteSpace=wrap;html=1;verticalAlign=top;arcSize=12;" vertex="1" parent="1">
          <mxGeometry x="740" y="1010" width="120" height="60" as="geometry" />
        </mxCell>
        <mxCell id="a3pwXa6y-IH8qgYmV6d7-56" value="" style="edgeStyle=orthogonalEdgeStyle;rounded=0;orthogonalLoop=1;jettySize=auto;html=1;" edge="1" parent="1" source="a3pwXa6y-IH8qgYmV6d7-51" target="a3pwXa6y-IH8qgYmV6d7-55">
          <mxGeometry relative="1" as="geometry" />
        </mxCell>
        <mxCell id="a3pwXa6y-IH8qgYmV6d7-51" value="Vamos lá!" style="whiteSpace=wrap;html=1;verticalAlign=top;arcSize=12;" vertex="1" parent="1">
          <mxGeometry x="940" y="1010" width="120" height="60" as="geometry" />
        </mxCell>
        <mxCell id="a3pwXa6y-IH8qgYmV6d7-58" value="" style="edgeStyle=orthogonalEdgeStyle;rounded=0;orthogonalLoop=1;jettySize=auto;html=1;" edge="1" parent="1" source="a3pwXa6y-IH8qgYmV6d7-55" target="a3pwXa6y-IH8qgYmV6d7-57">
          <mxGeometry relative="1" as="geometry" />
        </mxCell>
        <mxCell id="a3pwXa6y-IH8qgYmV6d7-55" value="Confirme seu consumo" style="whiteSpace=wrap;html=1;verticalAlign=top;arcSize=12;" vertex="1" parent="1">
          <mxGeometry x="940" y="1150" width="120" height="60" as="geometry" />
        </mxCell>
        <mxCell id="a3pwXa6y-IH8qgYmV6d7-60" value="" style="edgeStyle=orthogonalEdgeStyle;rounded=0;orthogonalLoop=1;jettySize=auto;html=1;" edge="1" parent="1" source="a3pwXa6y-IH8qgYmV6d7-57" target="a3pwXa6y-IH8qgYmV6d7-59">
          <mxGeometry relative="1" as="geometry" />
        </mxCell>
        <mxCell id="a3pwXa6y-IH8qgYmV6d7-57" value="Classe" style="verticalLabelPosition=bottom;verticalAlign=top;html=1;shape=card;whiteSpace=wrap;size=20;arcSize=12;" vertex="1" parent="1">
          <mxGeometry x="760" y="1150" width="100" height="60" as="geometry" />
        </mxCell>
        <mxCell id="a3pwXa6y-IH8qgYmV6d7-63" value="" style="edgeStyle=orthogonalEdgeStyle;rounded=0;orthogonalLoop=1;jettySize=auto;html=1;" edge="1" parent="1" source="a3pwXa6y-IH8qgYmV6d7-59" target="a3pwXa6y-IH8qgYmV6d7-62">
          <mxGeometry relative="1" as="geometry" />
        </mxCell>
        <mxCell id="a3pwXa6y-IH8qgYmV6d7-59" value="Grupo tarifário" style="verticalLabelPosition=bottom;verticalAlign=top;html=1;shape=card;whiteSpace=wrap;size=20;arcSize=12;" vertex="1" parent="1">
          <mxGeometry x="580" y="1150" width="100" height="60" as="geometry" />
        </mxCell>
        <mxCell id="a3pwXa6y-IH8qgYmV6d7-65" value="" style="edgeStyle=orthogonalEdgeStyle;rounded=0;orthogonalLoop=1;jettySize=auto;html=1;" edge="1" parent="1" source="a3pwXa6y-IH8qgYmV6d7-62" target="a3pwXa6y-IH8qgYmV6d7-64">
          <mxGeometry relative="1" as="geometry" />
        </mxCell>
        <mxCell id="a3pwXa6y-IH8qgYmV6d7-62" value="Histórico de consumo" style="whiteSpace=wrap;html=1;verticalAlign=top;arcSize=12;" vertex="1" parent="1">
          <mxGeometry x="390" y="1150" width="120" height="60" as="geometry" />
        </mxCell>
        <mxCell id="a3pwXa6y-IH8qgYmV6d7-67" value="" style="edgeStyle=orthogonalEdgeStyle;rounded=0;orthogonalLoop=1;jettySize=auto;html=1;" edge="1" parent="1" source="a3pwXa6y-IH8qgYmV6d7-64" target="a3pwXa6y-IH8qgYmV6d7-66">
          <mxGeometry relative="1" as="geometry" />
        </mxCell>
        <mxCell id="a3pwXa6y-IH8qgYmV6d7-64" value="Janeiro" style="verticalLabelPosition=bottom;verticalAlign=top;html=1;shape=card;whiteSpace=wrap;size=20;arcSize=12;" vertex="1" parent="1">
          <mxGeometry x="400" y="1260" width="100" height="60" as="geometry" />
        </mxCell>
        <mxCell id="a3pwXa6y-IH8qgYmV6d7-69" value="" style="edgeStyle=orthogonalEdgeStyle;rounded=0;orthogonalLoop=1;jettySize=auto;html=1;" edge="1" parent="1" source="a3pwXa6y-IH8qgYmV6d7-66" target="a3pwXa6y-IH8qgYmV6d7-68">
          <mxGeometry relative="1" as="geometry" />
        </mxCell>
        <mxCell id="a3pwXa6y-IH8qgYmV6d7-66" value="Fevereiro" style="verticalLabelPosition=bottom;verticalAlign=top;html=1;shape=card;whiteSpace=wrap;size=20;arcSize=12;" vertex="1" parent="1">
          <mxGeometry x="580" y="1260" width="100" height="60" as="geometry" />
        </mxCell>
        <mxCell id="a3pwXa6y-IH8qgYmV6d7-71" value="" style="edgeStyle=orthogonalEdgeStyle;rounded=0;orthogonalLoop=1;jettySize=auto;html=1;" edge="1" parent="1" source="a3pwXa6y-IH8qgYmV6d7-68" target="a3pwXa6y-IH8qgYmV6d7-70">
          <mxGeometry relative="1" as="geometry" />
        </mxCell>
        <mxCell id="a3pwXa6y-IH8qgYmV6d7-68" value="Março" style="verticalLabelPosition=bottom;verticalAlign=top;html=1;shape=card;whiteSpace=wrap;size=20;arcSize=12;" vertex="1" parent="1">
          <mxGeometry x="760" y="1260" width="100" height="60" as="geometry" />
        </mxCell>
        <mxCell id="a3pwXa6y-IH8qgYmV6d7-73" value="" style="edgeStyle=orthogonalEdgeStyle;rounded=0;orthogonalLoop=1;jettySize=auto;html=1;" edge="1" parent="1" source="a3pwXa6y-IH8qgYmV6d7-70" target="a3pwXa6y-IH8qgYmV6d7-72">
          <mxGeometry relative="1" as="geometry" />
        </mxCell>
        <mxCell id="a3pwXa6y-IH8qgYmV6d7-70" value="Abril" style="verticalLabelPosition=bottom;verticalAlign=top;html=1;shape=card;whiteSpace=wrap;size=20;arcSize=12;" vertex="1" parent="1">
          <mxGeometry x="940" y="1260" width="100" height="60" as="geometry" />
        </mxCell>
        <mxCell id="a3pwXa6y-IH8qgYmV6d7-75" value="" style="edgeStyle=orthogonalEdgeStyle;rounded=0;orthogonalLoop=1;jettySize=auto;html=1;" edge="1" parent="1" source="a3pwXa6y-IH8qgYmV6d7-72" target="a3pwXa6y-IH8qgYmV6d7-74">
          <mxGeometry relative="1" as="geometry" />
        </mxCell>
        <mxCell id="a3pwXa6y-IH8qgYmV6d7-72" value="Maio" style="verticalLabelPosition=bottom;verticalAlign=top;html=1;shape=card;whiteSpace=wrap;size=20;arcSize=12;" vertex="1" parent="1">
          <mxGeometry x="1120" y="1260" width="100" height="60" as="geometry" />
        </mxCell>
        <mxCell id="a3pwXa6y-IH8qgYmV6d7-77" value="" style="edgeStyle=orthogonalEdgeStyle;rounded=0;orthogonalLoop=1;jettySize=auto;html=1;" edge="1" parent="1" source="a3pwXa6y-IH8qgYmV6d7-74" target="a3pwXa6y-IH8qgYmV6d7-76">
          <mxGeometry relative="1" as="geometry" />
        </mxCell>
        <mxCell id="a3pwXa6y-IH8qgYmV6d7-74" value="Junho" style="verticalLabelPosition=bottom;verticalAlign=top;html=1;shape=card;whiteSpace=wrap;size=20;arcSize=12;" vertex="1" parent="1">
          <mxGeometry x="1120" y="1400" width="100" height="60" as="geometry" />
        </mxCell>
        <mxCell id="a3pwXa6y-IH8qgYmV6d7-79" value="" style="edgeStyle=orthogonalEdgeStyle;rounded=0;orthogonalLoop=1;jettySize=auto;html=1;" edge="1" parent="1" source="a3pwXa6y-IH8qgYmV6d7-76" target="a3pwXa6y-IH8qgYmV6d7-78">
          <mxGeometry relative="1" as="geometry" />
        </mxCell>
        <mxCell id="a3pwXa6y-IH8qgYmV6d7-76" value="Julho" style="verticalLabelPosition=bottom;verticalAlign=top;html=1;shape=card;whiteSpace=wrap;size=20;arcSize=12;" vertex="1" parent="1">
          <mxGeometry x="940" y="1400" width="100" height="60" as="geometry" />
        </mxCell>
        <mxCell id="a3pwXa6y-IH8qgYmV6d7-81" value="" style="edgeStyle=orthogonalEdgeStyle;rounded=0;orthogonalLoop=1;jettySize=auto;html=1;" edge="1" parent="1" source="a3pwXa6y-IH8qgYmV6d7-78" target="a3pwXa6y-IH8qgYmV6d7-80">
          <mxGeometry relative="1" as="geometry" />
        </mxCell>
        <mxCell id="a3pwXa6y-IH8qgYmV6d7-78" value="Agosto" style="verticalLabelPosition=bottom;verticalAlign=top;html=1;shape=card;whiteSpace=wrap;size=20;arcSize=12;" vertex="1" parent="1">
          <mxGeometry x="760" y="1400" width="100" height="60" as="geometry" />
        </mxCell>
        <mxCell id="a3pwXa6y-IH8qgYmV6d7-83" value="" style="edgeStyle=orthogonalEdgeStyle;rounded=0;orthogonalLoop=1;jettySize=auto;html=1;" edge="1" parent="1" source="a3pwXa6y-IH8qgYmV6d7-80" target="a3pwXa6y-IH8qgYmV6d7-82">
          <mxGeometry relative="1" as="geometry" />
        </mxCell>
        <mxCell id="a3pwXa6y-IH8qgYmV6d7-80" value="Setembro" style="verticalLabelPosition=bottom;verticalAlign=top;html=1;shape=card;whiteSpace=wrap;size=20;arcSize=12;" vertex="1" parent="1">
          <mxGeometry x="580" y="1400" width="100" height="60" as="geometry" />
        </mxCell>
        <mxCell id="a3pwXa6y-IH8qgYmV6d7-85" value="" style="edgeStyle=orthogonalEdgeStyle;rounded=0;orthogonalLoop=1;jettySize=auto;html=1;" edge="1" parent="1" source="a3pwXa6y-IH8qgYmV6d7-82" target="a3pwXa6y-IH8qgYmV6d7-84">
          <mxGeometry relative="1" as="geometry" />
        </mxCell>
        <mxCell id="a3pwXa6y-IH8qgYmV6d7-82" value="Outubro" style="verticalLabelPosition=bottom;verticalAlign=top;html=1;shape=card;whiteSpace=wrap;size=20;arcSize=12;" vertex="1" parent="1">
          <mxGeometry x="400" y="1400" width="100" height="60" as="geometry" />
        </mxCell>
        <mxCell id="a3pwXa6y-IH8qgYmV6d7-87" value="" style="edgeStyle=orthogonalEdgeStyle;rounded=0;orthogonalLoop=1;jettySize=auto;html=1;" edge="1" parent="1" source="a3pwXa6y-IH8qgYmV6d7-84" target="a3pwXa6y-IH8qgYmV6d7-86">
          <mxGeometry relative="1" as="geometry" />
        </mxCell>
        <mxCell id="a3pwXa6y-IH8qgYmV6d7-84" value="Novembro" style="verticalLabelPosition=bottom;verticalAlign=top;html=1;shape=card;whiteSpace=wrap;size=20;arcSize=12;" vertex="1" parent="1">
          <mxGeometry x="400" y="1540" width="100" height="60" as="geometry" />
        </mxCell>
        <mxCell id="a3pwXa6y-IH8qgYmV6d7-86" value="Dezembro" style="verticalLabelPosition=bottom;verticalAlign=top;html=1;shape=card;whiteSpace=wrap;size=20;arcSize=12;" vertex="1" parent="1">
          <mxGeometry x="580" y="1540" width="100" height="60" as="geometry" />
        </mxCell>
      </root>
    </mxGraphModel>
  </diagram>
</mxfile>
